<svg width="48" height="49" viewBox="0 0 48 49" fill="none" xmlns="http://www.w3.org/2000/svg">
<path d="M32.8104 6.02344H7.17018C5.4162 6.03404 4 7.44623 4 9.18458V24.0628C4 25.8011 5.4162 27.2133 7.17018 27.2239H10.2626V30.181C10.2626 30.5606 10.6689 30.8017 11.0021 30.6199L17.2253 27.2239H32.8104C34.5675 27.2134 35.9894 25.8042 36 24.0628V9.18458C35.9894 7.44311 34.5675 6.03396 32.8104 6.02344Z" fill="url(#paint0_linear)"/>
<path d="M21.8921 21.0235H41.1256C41.891 21.0235 42.6247 21.3238 43.1643 21.8579C43.7038 22.3919 44.0046 23.1156 43.9999 23.8686V35.7283C44.0046 36.4813 43.7038 37.205 43.1643 37.7391C42.6247 38.2731 41.891 38.5734 41.1256 38.5734H38.3218V41.1157C38.3218 41.5096 37.8875 41.7488 37.5545 41.5383L32.866 38.5734H21.8921C21.1236 38.578 20.3853 38.2798 19.8419 37.7452C19.2985 37.2107 18.9954 36.4843 19.0001 35.7283V23.8686C18.9954 23.1126 19.2985 22.3863 19.8419 21.8517C20.3853 21.3171 21.1236 21.0189 21.8921 21.0235Z" fill="url(#paint1_linear)" fill-opacity="0.9"/>
<defs>
<linearGradient id="paint0_linear" x1="-1.5" y1="43.5234" x2="48.9041" y2="-41.2036" gradientUnits="userSpaceOnUse">
<stop stop-color="#6B5AED"/>
<stop offset="0.255149" stop-color="#C3BBFF"/>
<stop offset="1" stop-color="#5AFFF7" stop-opacity="0.63"/>
</linearGradient>
<linearGradient id="paint1_linear" x1="25.5" y1="18.0234" x2="43.8293" y2="46.1347" gradientUnits="userSpaceOnUse">
<stop stop-color="#E7E4FD"/>
<stop offset="1" stop-color="#B4AAFF"/>
</linearGradient>
</defs>
</svg>
