<svg width="48" height="49" viewBox="0 0 48 49" fill="none" xmlns="http://www.w3.org/2000/svg">
<g clip-path="url(#clip0)">
<path d="M21.6545 25.2059C20.3583 25.3621 19.0815 25.6562 17.8449 26.0834C12.1069 28.0701 7.57761 32.6439 5.55874 38.4903C5.07947 39.9041 4.75213 41.3671 4.58252 42.8535C4.60594 43.1455 4.60594 43.439 4.58252 43.731V44.0235C5.2254 44.0235 5.86827 44.0235 6.48734 43.8041C8.38761 43.5133 10.234 42.9298 11.9637 42.0735C14.608 40.7498 16.9335 38.8436 18.7735 36.4916C20.5542 34.2069 21.8296 31.554 22.5117 28.7159C22.7887 27.5634 22.9718 26.3894 23.0593 25.2059C23.0593 25.084 23.0593 25.084 22.9165 25.084L21.6545 25.2059Z" fill="url(#paint0_linear)"/>
<path d="M5.39258 8.92284C6.24519 11.8145 7.73605 14.4666 9.74987 16.6741C11.2545 18.3265 13.0369 19.6887 15.012 20.696C17.4259 22.0174 20.0896 22.7905 22.8217 22.9629H22.9646C22.9646 22.1586 22.8217 21.3542 22.6789 20.5254C21.8119 15.7138 19.275 11.3852 15.5358 8.33784C13.8385 6.9505 11.9219 5.87055 9.86892 5.14469C8.51157 4.62869 7.09523 4.29283 5.6545 4.14531L4.74971 4.02344C4.48779 4.02344 4.48779 4.02344 4.48779 4.29157C4.51104 4.46953 4.51104 4.64986 4.48779 4.82782C4.64899 6.22141 4.95224 7.59389 5.39258 8.92284Z" fill="url(#paint1_linear)"/>
<path d="M27.0113 22.8655C28.9094 22.552 30.7537 21.961 32.4876 21.1105C35.0051 19.8534 37.2236 18.0482 38.9879 15.8211C41.695 12.5073 43.2821 8.38576 43.5118 4.07227H43.2499L42.3689 4.19414C41.0989 4.32828 39.846 4.59787 38.6307 4.99852C36.1109 5.82937 33.7849 7.18176 31.7971 8.97167C28.3604 12.0615 26.0724 16.2723 25.3207 20.8911C25.2255 21.5574 25.1541 22.2155 25.1064 22.8655C25.1064 22.8655 25.1064 23.0118 25.2493 23.0118L27.0113 22.8655Z" fill="url(#paint2_linear)"/>
<path d="M41.6307 36.467C40.3252 33.6032 38.3749 31.0972 35.94 29.1545C32.8724 26.6861 29.1435 25.2323 25.2492 24.9863C25.2492 24.9863 25.0825 24.9863 25.1063 25.1082C25.1063 25.742 25.2254 26.3513 25.3206 26.9607C25.5995 28.8964 26.1614 30.7781 26.9873 32.5426C29.1983 37.2784 33.1283 40.9431 37.9401 42.7558C39.6887 43.3988 41.5154 43.7925 43.3689 43.9258C43.4879 43.9258 43.5117 43.9258 43.4879 43.7796C43.4879 43.1702 43.4879 42.5608 43.2974 41.9514C42.9988 40.0516 42.4376 38.205 41.6307 36.467Z" fill="url(#paint3_linear)"/>
</g>
<defs>
<linearGradient id="paint0_linear" x1="26.5" y1="-30.4766" x2="9.04611" y2="72.4552" gradientUnits="userSpaceOnUse">
<stop offset="0.154355" stop-color="#6B5AED"/>
<stop offset="0.602172" stop-color="#C3BBFF"/>
<stop offset="1" stop-color="#5AFFF7" stop-opacity="0.63"/>
</linearGradient>
<linearGradient id="paint1_linear" x1="37" y1="106.523" x2="-1.15523" y2="-21.0328" gradientUnits="userSpaceOnUse">
<stop offset="0.238472" stop-color="#6B5AED"/>
<stop offset="0.651284" stop-color="#A69BF9"/>
<stop offset="1" stop-color="#5AFFF7" stop-opacity="0.63"/>
</linearGradient>
<linearGradient id="paint2_linear" x1="40.5" y1="87.0234" x2="28.1204" y2="-13.6224" gradientUnits="userSpaceOnUse">
<stop offset="0.0793812" stop-color="#6B5AED"/>
<stop offset="0.638307" stop-color="#A69BF9"/>
<stop offset="1" stop-color="#5AFFF7" stop-opacity="0.63"/>
</linearGradient>
<linearGradient id="paint3_linear" x1="40.5" y1="-20.4766" x2="39.6695" y2="70.5478" gradientUnits="userSpaceOnUse">
<stop offset="0.0998399" stop-color="#6B5AED"/>
<stop offset="0.573974" stop-color="#C3BBFF"/>
<stop offset="0.948572" stop-color="#5AFFF7" stop-opacity="0.63"/>
</linearGradient>
<clipPath id="clip0">
<rect width="40" height="40" fill="white" transform="translate(4 4.02344)"/>
</clipPath>
</defs>
</svg>
